<svg width="20" height="20" viewBox="0 0 20 20" fill="none" xmlns="http://www.w3.org/2000/svg">
<circle cx="10" cy="10" r="10" fill="white"/>
<path d="M12.006 10.24C12.762 9.918 13.224 9.204 13.224 8.252C13.224 6.572 11.964 5.424 10.102 5.424C8.212 5.424 6.938 6.642 6.798 8.406L8.184 8.686C8.268 7.398 9.024 6.74 10.102 6.74C11.152 6.74 11.838 7.342 11.838 8.252C11.838 9.078 11.208 9.582 10.172 9.582H8.926V10.884H10.256C11.362 10.884 12.006 11.416 12.006 12.284C12.006 13.236 11.222 13.88 10.116 13.88C8.912 13.88 8.212 13.124 8.086 11.906L6.672 12.186C6.812 13.978 8.156 15.196 10.116 15.196C12.062 15.196 13.378 14.02 13.378 12.27C13.378 11.276 12.86 10.548 12.006 10.24Z" fill="#1A181E"/>
</svg>
